<?xml version="1.0" encoding="UTF-8" standalone="no"?>
<!DOCTYPE svg PUBLIC "-//W3C//DTD SVG 1.1//EN"
 "http://www.w3.org/Graphics/SVG/1.1/DTD/svg11.dtd">
<!-- Generated by graphviz version 2.40.1 (20161225.0304)
 -->
<!-- Title: %3 Pages: 1 -->
<svg width="804pt" height="203pt"
 viewBox="0.00 0.00 804.00 203.00" xmlns="http://www.w3.org/2000/svg" xmlns:xlink="http://www.w3.org/1999/xlink">
<g id="graph0" class="graph" transform="scale(1 1) rotate(0) translate(4 199)">
<title>%3</title>
<polygon fill="#ffffff" stroke="transparent" points="-4,4 -4,-199 800,-199 800,4 -4,4"/>
<!-- w7 -->
<g id="node1" class="node">
<title>w7</title>
<path fill="none" stroke="#000000" d="M784,-123C784,-123 717,-123 717,-123 711,-123 705,-117 705,-111 705,-111 705,-82 705,-82 705,-76 711,-70 717,-70 717,-70 784,-70 784,-70 790,-70 796,-76 796,-82 796,-82 796,-111 796,-111 796,-117 790,-123 784,-123"/>
<text text-anchor="start" x="742" y="-107.8" font-family="Roboto Mono" font-size="14.00" fill="#0000ff">w7</text>
<text text-anchor="start" x="729.5" y="-92.8" font-family="Roboto Mono" font-size="14.00" fill="#000000">ExpOp</text>
<text text-anchor="start" x="713" y="-77.8" font-family="Roboto Mono" font-size="14.00" fill="#000000">fwd: 2.89</text>
</g>
<!-- w6 -->
<g id="node2" class="node">
<title>w6</title>
<path fill="none" stroke="#000000" d="M549,-123C549,-123 482,-123 482,-123 476,-123 470,-117 470,-111 470,-111 470,-82 470,-82 470,-76 476,-70 482,-70 482,-70 549,-70 549,-70 555,-70 561,-76 561,-82 561,-82 561,-111 561,-111 561,-117 555,-123 549,-123"/>
<text text-anchor="start" x="507" y="-107.8" font-family="Roboto Mono" font-size="14.00" fill="#0000ff">w6</text>
<text text-anchor="start" x="494.5" y="-92.8" font-family="Roboto Mono" font-size="14.00" fill="#000000">AddOp</text>
<text text-anchor="start" x="478" y="-77.8" font-family="Roboto Mono" font-size="14.00" fill="#000000">fwd: 1.06</text>
</g>
<!-- w7&#45;&#45;w6 -->
<g id="edge1" class="edge">
<title>w7&#45;&#45;w6</title>
<path fill="none" stroke="#000000" d="M704.911,-96.5C663.5337,-96.5 602.8251,-96.5 561.3628,-96.5"/>
<text text-anchor="middle" x="633" y="-100.3" font-family="Roboto Mono" font-size="14.00" fill="#000000">∂w7/∂w6: 2.89</text>
</g>
<!-- w3 -->
<g id="node3" class="node">
<title>w3</title>
<path fill="none" stroke="#000000" d="M314,-159C314,-159 247,-159 247,-159 241,-159 235,-153 235,-147 235,-147 235,-118 235,-118 235,-112 241,-106 247,-106 247,-106 314,-106 314,-106 320,-106 326,-112 326,-118 326,-118 326,-147 326,-147 326,-153 320,-159 314,-159"/>
<text text-anchor="start" x="272" y="-143.8" font-family="Roboto Mono" font-size="14.00" fill="#0000ff">w3</text>
<text text-anchor="start" x="259.5" y="-128.8" font-family="Roboto Mono" font-size="14.00" fill="#000000">MulOp</text>
<text text-anchor="start" x="243" y="-113.8" font-family="Roboto Mono" font-size="14.00" fill="#000000">fwd: 0.06</text>
</g>
<!-- w6&#45;&#45;w3 -->
<g id="edge2" class="edge">
<title>w6&#45;&#45;w3</title>
<path fill="none" stroke="#000000" d="M469.911,-103.4838C428.5337,-109.8225 367.8251,-119.1225 326.3628,-125.4742"/>
<text text-anchor="start" x="344" y="-125.3" font-family="Roboto Mono" font-size="14.00" fill="#000000">∂w6/∂w3: 1.00</text>
</g>
<!-- w5 -->
<g id="node4" class="node">
<title>w5</title>
<path fill="none" stroke="#000000" d="M314,-88C314,-88 247,-88 247,-88 241,-88 235,-82 235,-76 235,-76 235,-47 235,-47 235,-41 241,-35 247,-35 247,-35 314,-35 314,-35 320,-35 326,-41 326,-47 326,-47 326,-76 326,-76 326,-82 320,-88 314,-88"/>
<text text-anchor="start" x="272" y="-72.8" font-family="Roboto Mono" font-size="14.00" fill="#0000ff">w5</text>
<text text-anchor="start" x="259.5" y="-57.8" font-family="Roboto Mono" font-size="14.00" fill="#000000">MulOp</text>
<text text-anchor="start" x="243" y="-42.8" font-family="Roboto Mono" font-size="14.00" fill="#000000">fwd: 1.00</text>
</g>
<!-- w6&#45;&#45;w5 -->
<g id="edge3" class="edge">
<title>w6&#45;&#45;w5</title>
<path fill="none" stroke="#000000" d="M469.7261,-89.2275C463.7645,-88.2991 457.7377,-87.37 452,-86.5 409.3102,-80.0273 360.5922,-72.9558 326.0178,-67.9906"/>
<text text-anchor="start" x="344" y="-90.3" font-family="Roboto Mono" font-size="14.00" fill="#000000">∂w6/∂w5: 1.00</text>
</g>
<!-- w1 -->
<g id="node6" class="node">
<title>w1</title>
<path fill="none" stroke="#000000" d="M79,-124C79,-124 12,-124 12,-124 6,-124 0,-118 0,-112 0,-112 0,-83 0,-83 0,-77 6,-71 12,-71 12,-71 79,-71 79,-71 85,-71 91,-77 91,-83 91,-83 91,-112 91,-112 91,-118 85,-124 79,-124"/>
<text text-anchor="start" x="37" y="-108.8" font-family="Roboto Mono" font-size="14.00" fill="#0000ff">w1</text>
<text text-anchor="start" x="16.5" y="-93.8" font-family="Roboto Mono" font-size="14.00" fill="#000000">Var: x1</text>
<text text-anchor="start" x="8" y="-78.8" font-family="Roboto Mono" font-size="14.00" fill="#000000">fwd: 0.20</text>
</g>
<!-- w3&#45;&#45;w1 -->
<g id="edge6" class="edge">
<title>w3&#45;&#45;w1</title>
<path fill="none" stroke="#000000" d="M234.911,-125.7101C193.5337,-119.5476 132.8251,-110.5059 91.3628,-104.3306"/>
<text text-anchor="start" x="109" y="-125.3" font-family="Roboto Mono" font-size="14.00" fill="#000000">∂w3/∂w1: 0.30</text>
</g>
<!-- w2 -->
<g id="node7" class="node">
<title>w2</title>
<path fill="none" stroke="#000000" d="M79,-195C79,-195 12,-195 12,-195 6,-195 0,-189 0,-183 0,-183 0,-154 0,-154 0,-148 6,-142 12,-142 12,-142 79,-142 79,-142 85,-142 91,-148 91,-154 91,-154 91,-183 91,-183 91,-189 85,-195 79,-195"/>
<text text-anchor="start" x="37" y="-179.8" font-family="Roboto Mono" font-size="14.00" fill="#0000ff">w2</text>
<text text-anchor="start" x="16.5" y="-164.8" font-family="Roboto Mono" font-size="14.00" fill="#000000">Var: x2</text>
<text text-anchor="start" x="8" y="-149.8" font-family="Roboto Mono" font-size="14.00" fill="#000000">fwd: 0.30</text>
</g>
<!-- w3&#45;&#45;w2 -->
<g id="edge7" class="edge">
<title>w3&#45;&#45;w2</title>
<path fill="none" stroke="#000000" d="M234.911,-139.4838C193.5337,-145.8225 132.8251,-155.1225 91.3628,-161.4742"/>
<text text-anchor="start" x="109" y="-161.3" font-family="Roboto Mono" font-size="14.00" fill="#000000">∂w3/∂w2: 0.20</text>
</g>
<!-- w4 -->
<g id="node5" class="node">
<title>w4</title>
<path fill="none" stroke="#000000" d="M79,-53C79,-53 12,-53 12,-53 6,-53 0,-47 0,-41 0,-41 0,-12 0,-12 0,-6 6,0 12,0 12,0 79,0 79,0 85,0 91,-6 91,-12 91,-12 91,-41 91,-41 91,-47 85,-53 79,-53"/>
<text text-anchor="start" x="37" y="-37.8" font-family="Roboto Mono" font-size="14.00" fill="#0000ff">w4</text>
<text text-anchor="start" x="8" y="-22.8" font-family="Roboto Mono" font-size="14.00" fill="#000000">Number: 5</text>
<text text-anchor="start" x="8" y="-7.8" font-family="Roboto Mono" font-size="14.00" fill="#000000">fwd: 5.00</text>
</g>
<!-- w5&#45;&#45;w4 -->
<g id="edge4" class="edge">
<title>w5&#45;&#45;w4</title>
<path fill="none" stroke="#000000" d="M234.6647,-39.7759C228.8205,-37.6743 222.8397,-35.8324 217,-34.5 175.1538,-24.9521 126.1209,-23.6144 91.2267,-24.2713"/>
<text text-anchor="start" x="109" y="-38.3" font-family="Roboto Mono" font-size="14.00" fill="#000000">∂w5/∂w4: 0.20</text>
</g>
<!-- w5&#45;&#45;w1 -->
<g id="edge5" class="edge">
<title>w5&#45;&#45;w1</title>
<path fill="none" stroke="#000000" d="M234.911,-68.4838C193.5337,-74.8225 132.8251,-84.1225 91.3628,-90.4742"/>
<text text-anchor="start" x="109" y="-90.3" font-family="Roboto Mono" font-size="14.00" fill="#000000">∂w5/∂w1: 5.00</text>
</g>
</g>
</svg>
