<?xml version="1.0" encoding="UTF-8" standalone="no"?>
<!DOCTYPE svg PUBLIC "-//W3C//DTD SVG 1.1//EN"
 "http://www.w3.org/Graphics/SVG/1.1/DTD/svg11.dtd">
<!-- Generated by graphviz version 2.40.1 (20161225.0304)
 -->
<!-- Title: %3 Pages: 1 -->
<svg width="595pt" height="248pt"
 viewBox="0.00 0.00 595.00 248.00" xmlns="http://www.w3.org/2000/svg" xmlns:xlink="http://www.w3.org/1999/xlink">
<g id="graph0" class="graph" transform="scale(1 1) rotate(0) translate(4 244)">
<title>%3</title>
<polygon fill="#ffffff" stroke="transparent" points="-4,4 -4,-244 591,-244 591,4 -4,4"/>
<!-- w7 -->
<g id="node1" class="node">
<title>w7</title>
<path fill="none" stroke="#000000" d="M575,-153C575,-153 475,-153 475,-153 469,-153 463,-147 463,-141 463,-141 463,-97 463,-97 463,-91 469,-85 475,-85 475,-85 575,-85 575,-85 581,-85 587,-91 587,-97 587,-97 587,-141 587,-141 587,-147 581,-153 575,-153"/>
<text text-anchor="start" x="516.5" y="-137.8" font-family="Roboto Mono" font-size="14.00" fill="#0000ff">w7</text>
<text text-anchor="start" x="504" y="-122.8" font-family="Roboto Mono" font-size="14.00" fill="#000000">ExpOp</text>
<text text-anchor="start" x="487.5" y="-107.8" font-family="Roboto Mono" font-size="14.00" fill="#000000">fwd: 2.89</text>
<text text-anchor="start" x="471" y="-92.8" font-family="Roboto Mono" font-size="14.00" fill="#000000">∂w7/∂w6: 2.89</text>
</g>
<!-- w6 -->
<g id="node2" class="node">
<title>w6</title>
<path fill="none" stroke="#000000" d="M415,-160.5C415,-160.5 315,-160.5 315,-160.5 309,-160.5 303,-154.5 303,-148.5 303,-148.5 303,-89.5 303,-89.5 303,-83.5 309,-77.5 315,-77.5 315,-77.5 415,-77.5 415,-77.5 421,-77.5 427,-83.5 427,-89.5 427,-89.5 427,-148.5 427,-148.5 427,-154.5 421,-160.5 415,-160.5"/>
<text text-anchor="start" x="356.5" y="-145.3" font-family="Roboto Mono" font-size="14.00" fill="#0000ff">w6</text>
<text text-anchor="start" x="344" y="-130.3" font-family="Roboto Mono" font-size="14.00" fill="#000000">AddOp</text>
<text text-anchor="start" x="327.5" y="-115.3" font-family="Roboto Mono" font-size="14.00" fill="#000000">fwd: 1.06</text>
<text text-anchor="start" x="311" y="-100.3" font-family="Roboto Mono" font-size="14.00" fill="#000000">∂w6/∂w3: 2.89</text>
<text text-anchor="start" x="311" y="-85.3" font-family="Roboto Mono" font-size="14.00" fill="#000000">∂w6/∂w5: 2.89</text>
</g>
<!-- w7&#45;&#45;w6 -->
<g id="edge1" class="edge">
<title>w7&#45;&#45;w6</title>
<path fill="none" stroke="#000000" d="M462.6817,-119C451.0116,-119 438.8131,-119 427.1482,-119"/>
</g>
<!-- w3 -->
<g id="node3" class="node">
<title>w3</title>
<path fill="none" stroke="#000000" d="M251,-211.5C251,-211.5 151,-211.5 151,-211.5 145,-211.5 139,-205.5 139,-199.5 139,-199.5 139,-140.5 139,-140.5 139,-134.5 145,-128.5 151,-128.5 151,-128.5 251,-128.5 251,-128.5 257,-128.5 263,-134.5 263,-140.5 263,-140.5 263,-199.5 263,-199.5 263,-205.5 257,-211.5 251,-211.5"/>
<text text-anchor="start" x="192.5" y="-196.3" font-family="Roboto Mono" font-size="14.00" fill="#0000ff">w3</text>
<text text-anchor="start" x="180" y="-181.3" font-family="Roboto Mono" font-size="14.00" fill="#000000">MulOp</text>
<text text-anchor="start" x="163.5" y="-166.3" font-family="Roboto Mono" font-size="14.00" fill="#000000">fwd: 0.06</text>
<text text-anchor="start" x="147" y="-151.3" font-family="Roboto Mono" font-size="14.00" fill="#000000">∂w3/∂w1: 0.87</text>
<text text-anchor="start" x="147" y="-136.3" font-family="Roboto Mono" font-size="14.00" fill="#000000">∂w3/∂w2: 0.58</text>
</g>
<!-- w6&#45;&#45;w3 -->
<g id="edge2" class="edge">
<title>w6&#45;&#45;w3</title>
<path fill="none" stroke="#000000" d="M302.9986,-138.2809C289.9368,-142.3428 276.1541,-146.6289 263.089,-150.6918"/>
</g>
<!-- w5 -->
<g id="node4" class="node">
<title>w5</title>
<path fill="none" stroke="#000000" d="M255,-110.5C255,-110.5 147,-110.5 147,-110.5 141,-110.5 135,-104.5 135,-98.5 135,-98.5 135,-39.5 135,-39.5 135,-33.5 141,-27.5 147,-27.5 147,-27.5 255,-27.5 255,-27.5 261,-27.5 267,-33.5 267,-39.5 267,-39.5 267,-98.5 267,-98.5 267,-104.5 261,-110.5 255,-110.5"/>
<text text-anchor="start" x="192.5" y="-95.3" font-family="Roboto Mono" font-size="14.00" fill="#0000ff">w5</text>
<text text-anchor="start" x="180" y="-80.3" font-family="Roboto Mono" font-size="14.00" fill="#000000">MulOp</text>
<text text-anchor="start" x="163.5" y="-65.3" font-family="Roboto Mono" font-size="14.00" fill="#000000">fwd: 1.00</text>
<text text-anchor="start" x="147" y="-50.3" font-family="Roboto Mono" font-size="14.00" fill="#000000">∂w5/∂w4: 0.58</text>
<text text-anchor="start" x="143" y="-35.3" font-family="Roboto Mono" font-size="14.00" fill="#000000">∂w5/∂w1: 14.43</text>
</g>
<!-- w6&#45;&#45;w5 -->
<g id="edge3" class="edge">
<title>w6&#45;&#45;w5</title>
<path fill="none" stroke="#000000" d="M302.9986,-100.0971C291.2974,-96.5297 279.0176,-92.7859 267.1936,-89.181"/>
</g>
<!-- w1 -->
<g id="node6" class="node">
<title>w1</title>
<path fill="none" stroke="#000000" d="M87,-154C87,-154 12,-154 12,-154 6,-154 0,-148 0,-142 0,-142 0,-98 0,-98 0,-92 6,-86 12,-86 12,-86 87,-86 87,-86 93,-86 99,-92 99,-98 99,-98 99,-142 99,-142 99,-148 93,-154 87,-154"/>
<text text-anchor="start" x="41" y="-138.8" font-family="Roboto Mono" font-size="14.00" fill="#0000ff">w1</text>
<text text-anchor="start" x="37" y="-123.8" font-family="Roboto Mono" font-size="14.00" fill="#000000">Var</text>
<text text-anchor="start" x="12" y="-108.8" font-family="Roboto Mono" font-size="14.00" fill="#000000">fwd: 0.20</text>
<text text-anchor="start" x="8" y="-93.8" font-family="Roboto Mono" font-size="14.00" fill="#000000">adj: 15.30</text>
</g>
<!-- w3&#45;&#45;w1 -->
<g id="edge6" class="edge">
<title>w3&#45;&#45;w1</title>
<path fill="none" stroke="#000000" d="M138.942,-149.5188C125.704,-145.1498 111.8888,-140.5904 99.1871,-136.3984"/>
</g>
<!-- w2 -->
<g id="node7" class="node">
<title>w2</title>
<path fill="none" stroke="#000000" d="M83,-240C83,-240 16,-240 16,-240 10,-240 4,-234 4,-228 4,-228 4,-184 4,-184 4,-178 10,-172 16,-172 16,-172 83,-172 83,-172 89,-172 95,-178 95,-184 95,-184 95,-228 95,-228 95,-234 89,-240 83,-240"/>
<text text-anchor="start" x="41" y="-224.8" font-family="Roboto Mono" font-size="14.00" fill="#0000ff">w2</text>
<text text-anchor="start" x="37" y="-209.8" font-family="Roboto Mono" font-size="14.00" fill="#000000">Var</text>
<text text-anchor="start" x="12" y="-194.8" font-family="Roboto Mono" font-size="14.00" fill="#000000">fwd: 0.30</text>
<text text-anchor="start" x="12" y="-179.8" font-family="Roboto Mono" font-size="14.00" fill="#000000">adj: 0.58</text>
</g>
<!-- w3&#45;&#45;w2 -->
<g id="edge7" class="edge">
<title>w3&#45;&#45;w2</title>
<path fill="none" stroke="#000000" d="M138.942,-184.7464C124.3965,-188.2028 109.1543,-191.8247 95.4578,-195.0793"/>
</g>
<!-- w4 -->
<g id="node5" class="node">
<title>w4</title>
<path fill="none" stroke="#000000" d="M83,-68C83,-68 16,-68 16,-68 10,-68 4,-62 4,-56 4,-56 4,-12 4,-12 4,-6 10,0 16,0 16,0 83,0 83,0 89,0 95,-6 95,-12 95,-12 95,-56 95,-56 95,-62 89,-68 83,-68"/>
<text text-anchor="start" x="41" y="-52.8" font-family="Roboto Mono" font-size="14.00" fill="#0000ff">w4</text>
<text text-anchor="start" x="24.5" y="-37.8" font-family="Roboto Mono" font-size="14.00" fill="#000000">Number</text>
<text text-anchor="start" x="12" y="-22.8" font-family="Roboto Mono" font-size="14.00" fill="#000000">fwd: 5.00</text>
<text text-anchor="start" x="12" y="-7.8" font-family="Roboto Mono" font-size="14.00" fill="#000000">adj: 0.58</text>
</g>
<!-- w5&#45;&#45;w4 -->
<g id="edge4" class="edge">
<title>w5&#45;&#45;w4</title>
<path fill="none" stroke="#000000" d="M134.9906,-53.7503C121.5945,-50.6555 107.7852,-47.4652 95.2761,-44.5753"/>
</g>
<!-- w5&#45;&#45;w1 -->
<g id="edge5" class="edge">
<title>w5&#45;&#45;w1</title>
<path fill="none" stroke="#000000" d="M134.9906,-91.221C123.0298,-95.2474 110.7396,-99.3847 99.3396,-103.2223"/>
</g>
</g>
</svg>
