<?xml version="1.0" encoding="UTF-8" standalone="no"?>
<!DOCTYPE svg PUBLIC "-//W3C//DTD SVG 1.1//EN"
 "http://www.w3.org/Graphics/SVG/1.1/DTD/svg11.dtd">
<!-- Generated by graphviz version 2.40.1 (20161225.0304)
 -->
<!-- Title: %3 Pages: 1 -->
<svg width="844pt" height="248pt"
 viewBox="0.00 0.00 844.00 248.00" xmlns="http://www.w3.org/2000/svg" xmlns:xlink="http://www.w3.org/1999/xlink">
<g id="graph0" class="graph" transform="scale(1 1) rotate(0) translate(4 244)">
<title>%3</title>
<polygon fill="#ffffff" stroke="transparent" points="-4,4 -4,-244 840,-244 840,4 -4,4"/>
<!-- w7 -->
<g id="node1" class="node">
<title>w7</title>
<path fill="none" stroke="#000000" d="M824,-142C824,-142 749,-142 749,-142 743,-142 737,-136 737,-130 737,-130 737,-86 737,-86 737,-80 743,-74 749,-74 749,-74 824,-74 824,-74 830,-74 836,-80 836,-86 836,-86 836,-130 836,-130 836,-136 830,-142 824,-142"/>
<text text-anchor="start" x="778" y="-126.8" font-family="Roboto Mono" font-size="14.00" fill="#0000ff">w7</text>
<text text-anchor="start" x="765.5" y="-111.8" font-family="Roboto Mono" font-size="14.00" fill="#000000">ExpOp</text>
<text text-anchor="start" x="749" y="-96.8" font-family="Roboto Mono" font-size="14.00" fill="#000000">fwd: 2.89</text>
<text text-anchor="start" x="745" y="-81.8" font-family="Roboto Mono" font-size="14.00" fill="#000000">grad: 1.00</text>
</g>
<!-- w6 -->
<g id="node2" class="node">
<title>w6</title>
<path fill="none" stroke="#000000" d="M581,-142C581,-142 506,-142 506,-142 500,-142 494,-136 494,-130 494,-130 494,-86 494,-86 494,-80 500,-74 506,-74 506,-74 581,-74 581,-74 587,-74 593,-80 593,-86 593,-86 593,-130 593,-130 593,-136 587,-142 581,-142"/>
<text text-anchor="start" x="535" y="-126.8" font-family="Roboto Mono" font-size="14.00" fill="#0000ff">w6</text>
<text text-anchor="start" x="522.5" y="-111.8" font-family="Roboto Mono" font-size="14.00" fill="#000000">AddOp</text>
<text text-anchor="start" x="506" y="-96.8" font-family="Roboto Mono" font-size="14.00" fill="#000000">fwd: 1.06</text>
<text text-anchor="start" x="502" y="-81.8" font-family="Roboto Mono" font-size="14.00" fill="#000000">grad: 2.89</text>
</g>
<!-- w7&#45;&#45;w6 -->
<g id="edge1" class="edge">
<title>w7&#45;&#45;w6</title>
<path fill="none" stroke="#000000" d="M736.7389,-108C694.8053,-108 635.1094,-108 593.1945,-108"/>
<text text-anchor="middle" x="665" y="-111.8" font-family="Roboto Mono" font-size="14.00" fill="#000000">∂w7/∂w6: 2.89</text>
</g>
<!-- w3 -->
<g id="node3" class="node">
<title>w3</title>
<path fill="none" stroke="#000000" d="M338,-185C338,-185 263,-185 263,-185 257,-185 251,-179 251,-173 251,-173 251,-129 251,-129 251,-123 257,-117 263,-117 263,-117 338,-117 338,-117 344,-117 350,-123 350,-129 350,-129 350,-173 350,-173 350,-179 344,-185 338,-185"/>
<text text-anchor="start" x="292" y="-169.8" font-family="Roboto Mono" font-size="14.00" fill="#0000ff">w3</text>
<text text-anchor="start" x="279.5" y="-154.8" font-family="Roboto Mono" font-size="14.00" fill="#000000">MulOp</text>
<text text-anchor="start" x="263" y="-139.8" font-family="Roboto Mono" font-size="14.00" fill="#000000">fwd: 0.06</text>
<text text-anchor="start" x="259" y="-124.8" font-family="Roboto Mono" font-size="14.00" fill="#000000">grad: 2.89</text>
</g>
<!-- w6&#45;&#45;w3 -->
<g id="edge2" class="edge">
<title>w6&#45;&#45;w3</title>
<path fill="none" stroke="#000000" d="M493.7389,-116.8055C451.8053,-124.2258 392.1094,-134.7893 350.1945,-142.2063"/>
<text text-anchor="start" x="368" y="-141.8" font-family="Roboto Mono" font-size="14.00" fill="#000000">∂w6/∂w3: 1.00</text>
</g>
<!-- w5 -->
<g id="node4" class="node">
<title>w5</title>
<path fill="none" stroke="#000000" d="M338,-99C338,-99 263,-99 263,-99 257,-99 251,-93 251,-87 251,-87 251,-43 251,-43 251,-37 257,-31 263,-31 263,-31 338,-31 338,-31 344,-31 350,-37 350,-43 350,-43 350,-87 350,-87 350,-93 344,-99 338,-99"/>
<text text-anchor="start" x="292" y="-83.8" font-family="Roboto Mono" font-size="14.00" fill="#0000ff">w5</text>
<text text-anchor="start" x="279.5" y="-68.8" font-family="Roboto Mono" font-size="14.00" fill="#000000">MulOp</text>
<text text-anchor="start" x="263" y="-53.8" font-family="Roboto Mono" font-size="14.00" fill="#000000">fwd: 1.00</text>
<text text-anchor="start" x="259" y="-38.8" font-family="Roboto Mono" font-size="14.00" fill="#000000">grad: 2.89</text>
</g>
<!-- w6&#45;&#45;w5 -->
<g id="edge3" class="edge">
<title>w6&#45;&#45;w5</title>
<path fill="none" stroke="#000000" d="M493.7389,-99.1945C451.8053,-91.7742 392.1094,-81.2107 350.1945,-73.7937"/>
<text text-anchor="start" x="368" y="-98.8" font-family="Roboto Mono" font-size="14.00" fill="#000000">∂w6/∂w5: 1.00</text>
</g>
<!-- w1 -->
<g id="node6" class="node">
<title>w1</title>
<path fill="none" stroke="#000000" d="M95,-154C95,-154 12,-154 12,-154 6,-154 0,-148 0,-142 0,-142 0,-98 0,-98 0,-92 6,-86 12,-86 12,-86 95,-86 95,-86 101,-86 107,-92 107,-98 107,-98 107,-142 107,-142 107,-148 101,-154 95,-154"/>
<text text-anchor="start" x="45" y="-138.8" font-family="Roboto Mono" font-size="14.00" fill="#0000ff">w1</text>
<text text-anchor="start" x="24.5" y="-123.8" font-family="Roboto Mono" font-size="14.00" fill="#000000">Var: x1</text>
<text text-anchor="start" x="16" y="-108.8" font-family="Roboto Mono" font-size="14.00" fill="#000000">fwd: 0.20</text>
<text text-anchor="start" x="8" y="-93.8" font-family="Roboto Mono" font-size="14.00" fill="#000000">grad: 15.30</text>
</g>
<!-- w3&#45;&#45;w1 -->
<g id="edge6" class="edge">
<title>w3&#45;&#45;w1</title>
<path fill="none" stroke="#000000" d="M250.813,-144.764C209.2548,-139.5482 150.0832,-132.1218 107.391,-126.7637"/>
<text text-anchor="start" x="125" y="-144.8" font-family="Roboto Mono" font-size="14.00" fill="#000000">∂w3/∂w1: 0.30</text>
</g>
<!-- w2 -->
<g id="node7" class="node">
<title>w2</title>
<path fill="none" stroke="#000000" d="M91,-240C91,-240 16,-240 16,-240 10,-240 4,-234 4,-228 4,-228 4,-184 4,-184 4,-178 10,-172 16,-172 16,-172 91,-172 91,-172 97,-172 103,-178 103,-184 103,-184 103,-228 103,-228 103,-234 97,-240 91,-240"/>
<text text-anchor="start" x="45" y="-224.8" font-family="Roboto Mono" font-size="14.00" fill="#0000ff">w2</text>
<text text-anchor="start" x="24.5" y="-209.8" font-family="Roboto Mono" font-size="14.00" fill="#000000">Var: x2</text>
<text text-anchor="start" x="16" y="-194.8" font-family="Roboto Mono" font-size="14.00" fill="#000000">fwd: 0.30</text>
<text text-anchor="start" x="12" y="-179.8" font-family="Roboto Mono" font-size="14.00" fill="#000000">grad: 0.58</text>
</g>
<!-- w3&#45;&#45;w2 -->
<g id="edge7" class="edge">
<title>w3&#45;&#45;w2</title>
<path fill="none" stroke="#000000" d="M250.813,-162.0639C207.8461,-171.6314 146.0513,-185.3914 103.1076,-194.9538"/>
<text text-anchor="start" x="125" y="-192.8" font-family="Roboto Mono" font-size="14.00" fill="#000000">∂w3/∂w2: 0.20</text>
</g>
<!-- w4 -->
<g id="node5" class="node">
<title>w4</title>
<path fill="none" stroke="#000000" d="M91,-68C91,-68 16,-68 16,-68 10,-68 4,-62 4,-56 4,-56 4,-12 4,-12 4,-6 10,0 16,0 16,0 91,0 91,0 97,0 103,-6 103,-12 103,-12 103,-56 103,-56 103,-62 97,-68 91,-68"/>
<text text-anchor="start" x="45" y="-52.8" font-family="Roboto Mono" font-size="14.00" fill="#0000ff">w4</text>
<text text-anchor="start" x="16" y="-37.8" font-family="Roboto Mono" font-size="14.00" fill="#000000">Number: 5</text>
<text text-anchor="start" x="16" y="-22.8" font-family="Roboto Mono" font-size="14.00" fill="#000000">fwd: 5.00</text>
<text text-anchor="start" x="12" y="-7.8" font-family="Roboto Mono" font-size="14.00" fill="#000000">grad: 0.58</text>
</g>
<!-- w5&#45;&#45;w4 -->
<g id="edge4" class="edge">
<title>w5&#45;&#45;w4</title>
<path fill="none" stroke="#000000" d="M250.8859,-44.598C244.9375,-42.7586 238.8858,-41.1568 233,-40 189.7076,-31.4916 139.4336,-30.5559 103.1224,-31.4209"/>
<text text-anchor="start" x="125" y="-43.8" font-family="Roboto Mono" font-size="14.00" fill="#000000">∂w5/∂w4: 0.20</text>
</g>
<!-- w5&#45;&#45;w1 -->
<g id="edge5" class="edge">
<title>w5&#45;&#45;w1</title>
<path fill="none" stroke="#000000" d="M250.813,-76.0639C209.2548,-85.3177 150.0832,-98.4936 107.391,-108"/>
<text text-anchor="start" x="125" y="-106.8" font-family="Roboto Mono" font-size="14.00" fill="#000000">∂w5/∂w1: 5.00</text>
</g>
</g>
</svg>
